<svg width="37" height="30" fill="none" xmlns="http://www.w3.org/2000/svg"><path d="M6.681 29.218V27.33c0-.724-.438-1.195-1.189-1.195-.375 0-.782.125-1.063.534-.22-.346-.532-.534-1.002-.534-.312 0-.625.094-.876.44v-.378h-.656v3.02h.656V27.55c0-.535.282-.786.72-.786s.657.283.657.786v1.667h.657V27.55c0-.535.313-.786.72-.786.437 0 .656.283.656.786v1.667h.72zm9.73-3.02h-1.064v-.912h-.657v.912h-.595v.598h.595v1.384c0 .692.281 1.1 1.032 1.1.282 0 .594-.094.813-.22l-.187-.566a1.025 1.025 0 01-.563.157c-.313 0-.438-.188-.438-.503v-1.352h1.063v-.598zm5.568-.062a.88.88 0 00-.782.44v-.378h-.657v3.02h.657v-1.699c0-.503.219-.786.625-.786.126 0 .282.032.407.063l.188-.629c-.125-.031-.313-.031-.438-.031zm-8.415.314c-.313-.22-.751-.314-1.22-.314-.751 0-1.252.377-1.252.974 0 .504.375.787 1.032.881l.313.032c.344.062.532.157.532.314 0 .22-.25.377-.688.377a1.72 1.72 0 01-1.001-.314l-.313.503c.344.252.813.378 1.282.378.877 0 1.377-.41 1.377-.975 0-.535-.407-.818-1.032-.913l-.313-.03c-.282-.032-.5-.095-.5-.284 0-.22.218-.346.562-.346.376 0 .751.157.939.252l.281-.535zm17.456-.314a.881.881 0 00-.782.44v-.378h-.657v3.02h.657v-1.699c0-.503.219-.786.625-.786.126 0 .282.032.407.063l.188-.629c-.125-.031-.313-.031-.438-.031zm-8.384 1.572c0 .912.626 1.573 1.595 1.573.438 0 .751-.095 1.064-.346l-.313-.535c-.25.189-.5.283-.782.283-.532 0-.907-.377-.907-.975 0-.566.375-.943.907-.975.282 0 .532.095.782.283l.313-.534c-.313-.252-.626-.346-1.064-.346-.97 0-1.595.66-1.595 1.572zm6.069 0v-1.51h-.657v.378c-.219-.283-.532-.44-.939-.44-.844 0-1.501.66-1.501 1.572s.657 1.573 1.501 1.573c.438 0 .751-.158.939-.44v.377h.657v-1.51zm-2.409 0c0-.535.344-.975.907-.975.532 0 .907.409.907.975 0 .535-.375.975-.907.975-.563-.032-.907-.44-.907-.975zm-7.852-1.572c-.876 0-1.502.629-1.502 1.572 0 .944.626 1.573 1.533 1.573.438 0 .876-.126 1.22-.41l-.313-.471a1.49 1.49 0 01-.876.314c-.406 0-.813-.188-.907-.723h2.221v-.252c.032-.974-.532-1.603-1.376-1.603zm0 .566c.407 0 .688.251.75.723H17.63c.063-.409.345-.723.814-.723zm16.299 1.006v-2.705h-.657v1.573c-.22-.283-.532-.44-.939-.44-.844 0-1.501.66-1.501 1.572s.657 1.573 1.501 1.573c.438 0 .751-.158.939-.44v.377h.657v-1.51zm-2.41 0c0-.535.345-.975.908-.975.532 0 .907.409.907.975 0 .535-.375.975-.907.975-.563-.032-.907-.44-.907-.975zm-21.96 0v-1.51h-.657v.378c-.22-.283-.532-.44-.939-.44-.845 0-1.502.66-1.502 1.572s.657 1.573 1.502 1.573c.438 0 .75-.158.939-.44v.377h.657v-1.51zm-2.44 0c0-.535.343-.975.907-.975.531 0 .907.409.907.975 0 .535-.376.975-.907.975-.564-.032-.908-.44-.908-.975z" fill="#000"/><path d="M23.197 3.277h-9.854v17.8h9.854v-17.8z" fill="#FF5F00"/><path d="M13.97 12.172c0-3.617 1.689-6.825 4.285-8.9A11.157 11.157 0 0011.31.85C5.085.85.048 5.913.048 12.172c0 6.258 5.037 11.322 11.262 11.322 2.628 0 5.037-.912 6.945-2.422-2.596-2.044-4.286-5.283-4.286-8.9z" fill="#EB001B"/><path d="M36.495 12.172c0 6.258-5.037 11.322-11.263 11.322-2.628 0-5.037-.913-6.945-2.422 2.628-2.076 4.286-5.283 4.286-8.9s-1.69-6.825-4.286-8.9A11.157 11.157 0 0125.232.85c6.226 0 11.263 5.095 11.263 11.322z" fill="#F79E1B"/></svg>