<svg width="30" height="30" fill="none" xmlns="http://www.w3.org/2000/svg"><path d="M29.41.85H.976v28.688H29.41V20.07c.113-.164.168-.374.168-.63 0-.295-.055-.476-.168-.63" fill="url(#paint0_radial)"/><path d="M3.54 13.265l-.547-1.34-.544 1.34h1.09zm12.05-.533c-.11.067-.24.069-.396.069h-.971v-.746h.984c.14 0 .285.006.38.06.103.05.167.154.167.298 0 .146-.062.264-.165.32zm6.925.533l-.553-1.34-.55 1.34h1.103zm-12.91 1.451h-.82l-.003-2.633-1.158 2.633h-.702L5.76 12.081v2.635H4.134l-.306-.75H2.164l-.311.75H.985l1.43-3.36h1.188l1.36 3.18v-3.182h1.304l1.046 2.28.961-2.28h1.33v3.362zm3.265 0H10.2v-3.36h2.67v.699h-1.871v.606h1.825v.69H11v.67h1.87v.695zm3.764-2.456a.947.947 0 01-.562.896.93.93 0 01.395.283c.113.167.132.316.132.616v.66h-.806l-.003-.424c0-.203.02-.492-.126-.655-.117-.118-.294-.144-.583-.144h-.858v1.223h-.799v-3.36h1.839c.408 0 .709.01.968.16.252.15.403.37.403.745zm1.28 2.456h-.817v-3.36h.816v3.36zm9.46 0H26.24l-1.515-2.522v2.522H23.1l-.31-.75h-1.66l-.302.75h-.935c-.389 0-.88-.086-1.159-.372-.281-.286-.427-.672-.427-1.284 0-.498.088-.953.431-1.313.258-.269.663-.393 1.213-.393h.774v.72h-.758c-.291 0-.456.044-.615.199-.136.142-.23.408-.23.761 0 .36.072.62.22.79.123.133.347.173.557.173h.359l1.126-2.643h1.197l1.354 3.18v-3.18h1.217l1.405 2.341v-2.34h.819v3.361h-.001zm-26.398.66H2.34l.308-.746h.688l.307.746H6.33v-.57l.24.572h1.394l.24-.582v.579h6.678l-.003-1.226h.129c.09.003.117.012.117.163v1.063h3.453v-.285c.278.15.712.285 1.281.285h1.454l.31-.746h.69l.304.746h2.8v-.71l.423.71h2.244v-4.688h-2.219v.554l-.31-.554h-2.279v.554l-.285-.554h-3.077c-.515 0-.968.072-1.333.274v-.274h-2.124v.274c-.233-.208-.55-.274-.903-.274H7.797l-.52 1.21-.535-1.21H4.3v.554l-.269-.554H1.946l-.968 2.229-.002 2.46zm28.429 2.479H27.95c-.145 0-.242.005-.324.06-.084.055-.117.135-.117.243 0 .127.072.213.175.25.084.03.174.039.307.039l.433.012c.437.011.73.086.907.27.032.026.051.055.074.084l.001-.958zm0 2.217c-.193.285-.573.43-1.084.43h-1.543v-.721h1.537c.152 0 .26-.02.324-.083a.297.297 0 00.095-.22.276.276 0 00-.098-.221c-.058-.052-.142-.075-.282-.075-.75-.025-1.686.023-1.686-1.04 0-.488.308-1.001 1.147-1.001h1.592v-.67h-1.48c-.446 0-.77.108-1 .276v-.275H24.74c-.35 0-.76.087-.955.275v-.275h-3.907v.275c-.31-.225-.836-.275-1.078-.275h-2.577v.275c-.246-.24-.792-.275-1.126-.275h-2.884l-.66.718-.618-.718H6.626v4.69h4.227l.68-.728.64.729 2.606.002v-1.103h.256c.346.005.754-.01 1.114-.165v1.266h2.149V19.94h.104c.132 0 .145.005.145.14v1.083h6.529c.414 0 .848-.107 1.088-.3v.3h2.07c.431 0 .852-.061 1.172-.216v-.875zm-3.188-1.343c.156.162.24.366.24.712 0 .723-.45 1.06-1.256 1.06h-1.556v-.72h1.55c.151 0 .259-.02.326-.083a.3.3 0 00-.003-.441c-.061-.052-.145-.075-.284-.075-.747-.025-1.683.023-1.683-1.04 0-.488.305-1.001 1.143-1.001h1.602v.716H24.83c-.145 0-.24.005-.321.06-.088.055-.12.135-.12.243 0 .127.075.213.174.25.085.03.175.039.311.039l.43.012c.434.008.732.083.913.268zm-7.211-.208c-.107.064-.24.069-.395.069h-.97v-.756h.984c.142 0 .284.003.38.061.105.055.166.159.166.302a.367.367 0 01-.165.324zm.482.418a.87.87 0 01.391.282c.113.165.13.318.132.614v.666h-.802v-.42c0-.203.02-.503-.129-.659-.117-.12-.294-.149-.586-.149h-.854v1.228h-.803v-3.362h1.846c.404 0 .699.018.962.16.252.152.41.362.41.745a.944.944 0 01-.567.895zm1.01-1.799h2.667v.695h-1.872v.612h1.825v.686h-1.825v.67l1.872.002v.698h-2.668V17.14zm-5.392 1.551h-1.033v-.855h1.042c.288 0 .489.118.489.412 0 .29-.192.443-.498.443zm-1.83 1.505l-1.227-1.37 1.227-1.326v2.696zm-3.168-.395H8.143v-.669h1.755v-.686H8.143v-.612h2.004l.874.98-.913.987zm6.353-1.554c0 .934-.693 1.126-1.391 1.126h-.998v1.128H12.52l-.984-1.113-1.023 1.113H7.347v-3.362h3.214l.983 1.102 1.016-1.102h2.554c.635.001 1.347.177 1.347 1.108z" fill="#fff"/><defs><radialGradient id="paint0_radial" cx="0" cy="0" r="1" gradientUnits="userSpaceOnUse" gradientTransform="matrix(26.6821 0 0 26.8231 5.993 5.861)"><stop stop-color="#9DD5F6"/><stop offset=".071" stop-color="#98D3F5"/><stop offset=".158" stop-color="#89CEF3"/><stop offset=".252" stop-color="#70C6EF"/><stop offset=".351" stop-color="#4EBBEA"/><stop offset=".455" stop-color="#23ADE3"/><stop offset=".5" stop-color="#0DA6E0"/><stop offset="1" stop-color="#2E77BC"/></radialGradient></defs></svg>