<svg width="57" height="18" fill="none" xmlns="http://www.w3.org/2000/svg"><path fill-rule="evenodd" clip-rule="evenodd" d="M20.25 17.063L23.066.517h4.493l-2.813 16.546H20.25zM41.023.921a12.018 12.018 0 00-4.02-.683c-4.45 0-7.56 2.236-7.582 5.454-.022 2.373 2.225 3.697 3.926 4.495 1.749.823 2.34 1.325 2.315 2.055 0 1.116-1.385 1.62-2.678 1.62-1.794 0-2.748-.25-4.222-.866l-.591-.275-.612 3.697c1.043.48 2.973.867 4.994.891 4.722 0 7.765-2.215 7.812-5.658.021-1.872-1.182-3.31-3.77-4.496-1.567-.751-2.521-1.256-2.521-2.032 0-.709.819-1.439 2.567-1.439 1.477-.022 2.542.297 3.36.64l.41.183.612-3.586zM52.534.534H49.06c-1.068 0-1.884.297-2.361 1.37l-6.65 15.179h4.699s.772-2.054.954-2.488h5.743c.135.57.544 2.488.544 2.488h4.155L52.534.533zm-5.54 10.658l1.795-4.61c-.047.047.363-.959.59-1.574l.296 1.413s.862 3.948 1.043 4.771h-3.724zM16.505.534l-4.404 11.274-.455-2.283c-.819-2.649-3.383-5.501-6.22-6.94l4.02 14.47h4.745L21.25.531h-4.746v.003z" fill="#005098"/><path fill-rule="evenodd" clip-rule="evenodd" d="M8.035.517H.793L.747.882c5.607 1.37 9.353 4.678 10.898 8.65l-1.588-7.601C9.783.882 9.01.56 8.035.517z" fill="#F7A600"/></svg>